<svg
  xmlns="http://www.w3.org/2000/svg"
  xmlns:xlink="http://www.w3.org/1999/xlink"
  width="300"
  height="100"
>
  <g>
    <line x1="0" y1="50" x2="300" y2="50"
          style="stroke-dasharray:9,5"
          stoke="black;stroke-width=2"
    >
    </line>
  </g>
  <g fill="rgba(106,127,239,0.04)">
    <path d="M 0 70 Q 75 39, 150 70 T 300 70 T 450 70 T 600 70 T 750 70 V 100 H 0 V 0">
    </path>
    <animateTransform
      attributeName="transform"
      attributeType="XML"
      type="translate"
      from="0"
      to="-300"
      dur="6s"
      repeatCount="indefinite"
    >
    </animateTransform>
  </g>
  <g fill="rgba(106,127,239,0.06)">
    <path
      d="M 0 70 Q 87.5 47, 175 70 T 350 70 T 525 70 T 700 70 T 875 70 T 1050 70 V 100 H 0 V 0"></path>
    <animateTransform
      attributeName="transform"
      attributeType="XML"
      type="translate"
      from="0"
      to="-350"
      dur="6s"
      repeatCount="indefinite"
    >
    </animateTransform>
  </g>
  <g fill="rgba(106,127,239,0.1)" transform="translate(-903.868 0)">
    <path
      d="M 0 70 Q 135 36, 270 70 T 540 70 T 810 70 T 1080 70 V 100 H 0 V 0"
      transform="translate(-38.232284367796474, 0)"
    >
    </path>
    <animateTransform
      attributeName="transform"
      attributeType="XML"
      type="translate"
      from="0"
      to="-540"
      dur="4s" repeatCount="indefinite"
    >
    </animateTransform>
  </g>
</svg>
